{
  "accessors": [
    {
      "bufferView": 3,
      "componentType": 5126,
      "count": 4055,
      "max": [
        4.8147711753845215,
        8.642537117004395,
        2.3897323608398438
      ],
      "min": [
        -4.8147711753845215,
        1.9036513566970825,
        -1.414857029914856
      ],
      "type": "VEC3"
    },
    {
      "bufferView": 3,
      "byteOffset": 48660,
      "componentType": 5126,
      "count": 4055,
      "max": [
        1.0,
        1.0,
        1.0
      ],
      "min": [
        -1.0,
        -1.0,
        -1.0
      ],
      "type": "VEC3"
    },
    {
      "bufferView": 2,
      "componentType": 5126,
      "count": 4055,
      "max": [
        0.9960293769836426,
        0.9866183400154114
      ],
      "min": [
        0.00555372703820467,
        0.0036743502132594585
      ],
      "type": "VEC2"
    },
    {
      "bufferView": 1,
      "componentType": 5125,
      "count": 20448,
      "type": "SCALAR"
    },
    {
      "bufferView": 5,
      "componentType": 5126,
      "count": 9,
      "max": [
        100.0,
        0.7331717610359192,
        1.0043316933661117e-07,
        0.0,
        0.7331717610359192,
        100.0,
        0.7150659561157227,
        0.0,
        1.0,
        3.304396045678004e-07,
        100.0,
        0.0,
        2.98559832572937,
        0.0,
        2.835907459259033,
        1.0
      ],
      "min": [
        1.0674856554260259e-07,
        -0.7331717610359192,
        -0.6990570425987244,
        0.0,
        -0.7331717610359192,
        0.6800435185432434,
        -0.7150659561157227,
        0.0,
        -1.8366853282714146e-07,
        -7.633226317693698e-08,
        7.462333684316036e-08,
        0.0,
        -2.98559832572937,
        -5.739080429077148,
        -2.835907459259033,
        1.0
      ],
      "type": "MAT4"
    },
    {
      "bufferView": 0,
      "componentType": 5123,
      "count": 4055,
      "type": "VEC4"
    },
    {
      "bufferView": 4,
      "componentType": 5126,
      "count": 4055,
      "max": [
        1.0,
        0.37426504492759705,
        0.0,
        0.0
      ],
      "min": [
        0.6257349252700806,
        0.0,
        0.0,
        0.0
      ],
      "type": "VEC4"
    },
    {
      "bufferView": 6,
      "componentType": 5126,
      "count": 1,
      "max": [
        0.0
      ],
      "min": [
        0.0
      ],
      "type": "SCALAR"
    },
    {
      "bufferView": 7,
      "componentType": 5126,
      "count": 1,
      "max": [
        2.1760638446721714e-07,
        0.9700908660888672,
        -2.609692728583468e-08
      ],
      "min": [
        2.1760638446721714e-07,
        0.9700908660888672,
        -2.609692728583468e-08
      ],
      "type": "VEC3"
    },
    {
      "bufferView": 6,
      "byteOffset": 4,
      "componentType": 5126,
      "count": 161,
      "max": [
        3.3333332538604736
      ],
      "min": [
        0.0
      ],
      "type": "SCALAR"
    },
    {
      "bufferView": 8,
      "componentType": 5126,
      "count": 161,
      "max": [
        0.0639820247888565,
        -0.7065699100494385,
        0.051258355379104614,
        0.7069453597068787
      ],
      "min": [
        -0.000979183940216899,
        -0.7420620322227478,
        -0.0644211620092392,
        0.6672786474227905
      ],
      "type": "VEC4"
    },
    {
      "bufferView": 6,
      "byteOffset": 648,
      "componentType": 5126,
      "count": 161,
      "max": [
        3.3333332538604736
      ],
      "min": [
        0.0
      ],
      "type": "SCALAR"
    },
    {
      "bufferView": 7,
      "byteOffset": 12,
      "componentType": 5126,
      "count": 161,
      "max": [
        1.41011643409729,
        1.9286115169525146,
        -0.20927920937538147
      ],
      "min": [
        1.41011643409729,
        1.9204134941101074,
        -0.2606881260871887
      ],
      "type": "VEC3"
    },
    {
      "bufferView": 6,
      "byteOffset": 1292,
      "componentType": 5126,
      "count": 1,
      "max": [
        0.0
      ],
      "min": [
        0.0
      ],
      "type": "SCALAR"
    },
    {
      "bufferView": 7,
      "byteOffset": 1944,
      "componentType": 5126,
      "count": 1,
      "max": [
        1.0,
        1.0,
        1.0
      ],
      "min": [
        1.0,
        1.0,
        1.0
      ],
      "type": "VEC3"
    },
    {
      "bufferView": 6,
      "byteOffset": 1296,
      "componentType": 5126,
      "count": 161,
      "max": [
        3.3333332538604736
      ],
      "min": [
        0.0
      ],
      "type": "SCALAR"
    },
    {
      "bufferView": 8,
      "byteOffset": 2576,
      "componentType": 5126,
      "count": 161,
      "max": [
        0.06378362327814102,
        0.03907691314816475,
        -0.17606955766677856,
        0.9811475872993469
      ],
      "min": [
        -0.06096969544887543,
        -0.05129960551857948,
        -0.5623209476470947,
        0.8242338299751282
      ],
      "type": "VEC4"
    },
    {
      "bufferView": 6,
      "byteOffset": 1940,
      "componentType": 5126,
      "count": 91,
      "max": [
        3.3333332538604736
      ],
      "min": [
        0.0
      ],
      "type": "SCALAR"
    },
    {
      "bufferView": 7,
      "byteOffset": 1956,
      "componentType": 5126,
      "count": 91,
      "max": [
        -3.946292963519227e-07,
        0.9700906276702881,
        3.681336790961609e-09
      ],
      "min": [
        -3.946292963519227e-07,
        0.9700906276702881,
        3.6813356807385844e-09
      ],
      "type": "VEC3"
    },
    {
      "bufferView": 6,
      "byteOffset": 2304,
      "componentType": 5126,
      "count": 1,
      "max": [
        0.0
      ],
      "min": [
        0.0
      ],
      "type": "SCALAR"
    },
    {
      "bufferView": 7,
      "byteOffset": 3048,
      "componentType": 5126,
      "count": 1,
      "max": [
        1.0,
        1.0,
        1.0
      ],
      "min": [
        1.0,
        1.0,
        1.0
      ],
      "type": "VEC3"
    },
    {
      "bufferView": 6,
      "byteOffset": 2308,
      "componentType": 5126,
      "count": 155,
      "max": [
        3.3333332538604736
      ],
      "min": [
        0.0
      ],
      "type": "SCALAR"
    },
    {
      "bufferView": 8,
      "byteOffset": 5152,
      "componentType": 5126,
      "count": 155,
      "max": [
        0.057805899530649185,
        -0.6779181957244873,
        0.013352081179618835,
        0.7327499985694885
      ],
      "min": [
        -0.08736760169267654,
        -0.7132683992385864,
        -0.10274546593427658,
        0.7002867460250854
      ],
      "type": "VEC4"
    },
    {
      "bufferView": 6,
      "byteOffset": 2928,
      "componentType": 5126,
      "count": 161,
      "max": [
        3.3333332538604736
      ],
      "min": [
        0.0
      ],
      "type": "SCALAR"
    },
    {
      "bufferView": 7,
      "byteOffset": 3060,
      "componentType": 5126,
      "count": 161,
      "max": [
        -1.41011643409729,
        1.928732991218567,
        -0.2576752007007599
      ],
      "min": [
        -1.41011643409729,
        1.920535922050476,
        -0.3060714900493622
      ],
      "type": "VEC3"
    },
    {
      "bufferView": 6,
      "byteOffset": 3572,
      "componentType": 5126,
      "count": 1,
      "max": [
        0.0
      ],
      "min": [
        0.0
      ],
      "type": "SCALAR"
    },
    {
      "bufferView": 7,
      "byteOffset": 4992,
      "componentType": 5126,
      "count": 1,
      "max": [
        0.9999999403953552,
        1.0,
        1.0
      ],
      "min": [
        0.9999999403953552,
        1.0,
        1.0
      ],
      "type": "VEC3"
    },
    {
      "bufferView": 6,
      "byteOffset": 3576,
      "componentType": 5126,
      "count": 161,
      "max": [
        3.3333332538604736
      ],
      "min": [
        0.0
      ],
      "type": "SCALAR"
    },
    {
      "bufferView": 8,
      "byteOffset": 7632,
      "componentType": 5126,
      "count": 161,
      "max": [
        0.047626614570617676,
        0.015530306845903397,
        0.47316110134124756,
        0.9167557954788208
      ],
      "min": [
        -0.07226110249757767,
        -0.008913532830774784,
        0.39714211225509644,
        0.8807654976844788
      ],
      "type": "VEC4"
    },
    {
      "bufferView": 6,
      "byteOffset": 4220,
      "componentType": 5126,
      "count": 161,
      "max": [
        3.3333332538604736
      ],
      "min": [
        0.0
      ],
      "type": "SCALAR"
    },
    {
      "bufferView": 7,
      "byteOffset": 5004,
      "componentType": 5126,
      "count": 161,
      "max": [
        0.5047844052314758,
        0.4616873264312744,
        5.988185882568359
      ],
      "min": [
        -0.6898720860481262,
        0.4616873264312744,
        3.4555275440216064
      ],
      "type": "VEC3"
    },
    {
      "bufferView": 6,
      "byteOffset": 4864,
      "componentType": 5126,
      "count": 1,
      "max": [
        0.0
      ],
      "min": [
        0.0
      ],
      "type": "SCALAR"
    },
    {
      "bufferView": 7,
      "byteOffset": 6936,
      "componentType": 5126,
      "count": 1,
      "max": [
        1.0,
        1.0,
        1.0
      ],
      "min": [
        1.0,
        1.0,
        1.0
      ],
      "type": "VEC3"
    },
    {
      "bufferView": 6,
      "byteOffset": 4868,
      "componentType": 5126,
      "count": 161,
      "max": [
        3.3333332538604736
      ],
      "min": [
        0.0
      ],
      "type": "SCALAR"
    },
    {
      "bufferView": 8,
      "byteOffset": 10208,
      "componentType": 5126,
      "count": 161,
      "max": [
        0.06960907578468323,
        0.7756145596504211,
        0.7621577978134155,
        0.07719538360834122
      ],
      "min": [
        -0.09228777140378952,
        0.6361969113349915,
        0.621308445930481,
        -0.08690503239631653
      ],
      "type": "VEC4"
    },
    {
      "bufferView": 6,
      "byteOffset": 5512,
      "componentType": 5126,
      "count": 1,
      "max": [
        0.0
      ],
      "min": [
        0.0
      ],
      "type": "SCALAR"
    },
    {
      "bufferView": 8,
      "byteOffset": 12784,
      "componentType": 5126,
      "count": 1,
      "max": [
        8.104031317837212e-40,
        1.3234889800848443e-23,
        1.0,
        6.123234262925839e-17
      ],
      "min": [
        8.104031317837212e-40,
        1.3234889800848443e-23,
        1.0,
        6.123234262925839e-17
      ],
      "type": "VEC4"
    },
    {
      "bufferView": 6,
      "byteOffset": 5516,
      "componentType": 5126,
      "count": 1,
      "max": [
        0.0
      ],
      "min": [
        0.0
      ],
      "type": "SCALAR"
    },
    {
      "bufferView": 8,
      "byteOffset": 12800,
      "componentType": 5126,
      "count": 1,
      "max": [
        -0.7071068286895752,
        0.0,
        0.0,
        0.7071067094802856
      ],
      "min": [
        -0.7071068286895752,
        0.0,
        0.0,
        0.7071067094802856
      ],
      "type": "VEC4"
    }
  ],
  "animations": [
    {
      "channels": [
        {
          "sampler": 0,
          "target": {
            "node": 10,
            "path": "translation"
          }
        },
        {
          "sampler": 1,
          "target": {
            "node": 10,
            "path": "rotation"
          }
        },
        {
          "sampler": 2,
          "target": {
            "node": 9,
            "path": "translation"
          }
        },
        {
          "sampler": 3,
          "target": {
            "node": 9,
            "path": "scale"
          }
        },
        {
          "sampler": 4,
          "target": {
            "node": 9,
            "path": "rotation"
          }
        },
        {
          "sampler": 5,
          "target": {
            "node": 13,
            "path": "translation"
          }
        },
        {
          "sampler": 6,
          "target": {
            "node": 13,
            "path": "scale"
          }
        },
        {
          "sampler": 7,
          "target": {
            "node": 13,
            "path": "rotation"
          }
        },
        {
          "sampler": 8,
          "target": {
            "node": 12,
            "path": "translation"
          }
        },
        {
          "sampler": 9,
          "target": {
            "node": 12,
            "path": "scale"
          }
        },
        {
          "sampler": 10,
          "target": {
            "node": 12,
            "path": "rotation"
          }
        },
        {
          "sampler": 11,
          "target": {
            "node": 8,
            "path": "translation"
          }
        },
        {
          "sampler": 12,
          "target": {
            "node": 8,
            "path": "scale"
          }
        },
        {
          "sampler": 13,
          "target": {
            "node": 8,
            "path": "rotation"
          }
        },
        {
          "sampler": 14,
          "target": {
            "node": 7,
            "path": "rotation"
          }
        },
        {
          "sampler": 15,
          "target": {
            "node": 4,
            "path": "rotation"
          }
        }
      ],
      "name": "Idle",
      "samplers": [
        {
          "input": 7,
          "interpolation": "LINEAR",
          "output": 8
        },
        {
          "input": 9,
          "interpolation": "LINEAR",
          "output": 10
        },
        {
          "input": 11,
          "interpolation": "LINEAR",
          "output": 12
        },
        {
          "input": 13,
          "interpolation": "LINEAR",
          "output": 14
        },
        {
          "input": 15,
          "interpolation": "LINEAR",
          "output": 16
        },
        {
          "input": 17,
          "interpolation": "LINEAR",
          "output": 18
        },
        {
          "input": 19,
          "interpolation": "LINEAR",
          "output": 20
        },
        {
          "input": 21,
          "interpolation": "LINEAR",
          "output": 22
        },
        {
          "input": 23,
          "interpolation": "LINEAR",
          "output": 24
        },
        {
          "input": 25,
          "interpolation": "LINEAR",
          "output": 26
        },
        {
          "input": 27,
          "interpolation": "LINEAR",
          "output": 28
        },
        {
          "input": 29,
          "interpolation": "LINEAR",
          "output": 30
        },
        {
          "input": 31,
          "interpolation": "LINEAR",
          "output": 32
        },
        {
          "input": 33,
          "interpolation": "LINEAR",
          "output": 34
        },
        {
          "input": 35,
          "interpolation": "LINEAR",
          "output": 36
        },
        {
          "input": 37,
          "interpolation": "LINEAR",
          "output": 38
        }
      ]
    }
  ],
  "asset": {
    "extras": {
      "author": "AlmondFeather (https://sketchfab.com/almondfeather)",
      "license": "CC-BY-NC-SA-4.0 (http://creativecommons.org/licenses/by-nc-sa/4.0/)",
      "source": "https://sketchfab.com/3d-models/cosmog-d928b7339a9b4ecb841162c53b4c4f4a",
      "title": "Cosmog"
    },
    "generator": "Sketchfab-12.65.0",
    "version": "2.0"
  },
  "bufferViews": [
    {
      "buffer": 0,
      "byteLength": 32440,
      "byteStride": 8,
      "name": "shortBufferViews",
      "target": 34962
    },
    {
      "buffer": 0,
      "byteLength": 81792,
      "byteOffset": 32440,
      "name": "floatBufferViews",
      "target": 34963
    },
    {
      "buffer": 0,
      "byteLength": 32440,
      "byteOffset": 114232,
      "byteStride": 8,
      "name": "floatBufferViews",
      "target": 34962
    },
    {
      "buffer": 0,
      "byteLength": 97320,
      "byteOffset": 146672,
      "byteStride": 12,
      "name": "floatBufferViews",
      "target": 34962
    },
    {
      "buffer": 0,
      "byteLength": 64880,
      "byteOffset": 243992,
      "byteStride": 16,
      "name": "floatBufferViews",
      "target": 34962
    },
    {
      "buffer": 0,
      "byteLength": 576,
      "byteOffset": 308872,
      "name": "floatBufferViews"
    },
    {
      "buffer": 0,
      "byteLength": 5520,
      "byteOffset": 309448,
      "name": "floatBufferViews"
    },
    {
      "buffer": 0,
      "byteLength": 6948,
      "byteOffset": 314968,
      "byteStride": 12,
      "name": "floatBufferViews"
    },
    {
      "buffer": 0,
      "byteLength": 12816,
      "byteOffset": 321916,
      "byteStride": 16,
      "name": "floatBufferViews"
    }
  ],
  "buffers": [
    {
      "byteLength": 334732,
      "uri": "scene.bin"
    }
  ],
  "extensionsUsed": [
    "KHR_materials_unlit"
  ],
  "images": [
    {
      "uri": "textures/Cosmog_baseColor.png"
    }
  ],
  "materials": [
    {
      "extensions": {
        "KHR_materials_unlit": {}
      },
      "name": "Cosmog",
      "pbrMetallicRoughness": {
        "baseColorTexture": {
          "index": 0
        },
        "metallicFactor": 0.0
      }
    }
  ],
  "meshes": [
    {
      "name": "cosmog_Cosmog_0",
      "primitives": [
        {
          "attributes": {
            "JOINTS_0": 5,
            "NORMAL": 1,
            "POSITION": 0,
            "TEXCOORD_0": 2,
            "WEIGHTS_0": 6
          },
          "indices": 3,
          "material": 0,
          "mode": 4
        }
      ]
    }
  ],
  "nodes": [
    {
      "children": [
        1
      ],
      "matrix": [
        0.0007637492381036282,
        0.0,
        0.0,
        0.0,
        0.0,
        1.6958639783651378e-19,
        -0.0007637492381036282,
        0.0,
        0.0,
        0.0007637492381036282,
        1.6958639783651378e-19,
        0.0,
        0.0,
        0.0,
        0.0,
        1.0
      ],
      "name": "Sketchfab_model"
    },
    {
      "children": [
        2
      ],
      "matrix": [
        1.0,
        0.0,
        0.0,
        0.0,
        0.0,
        0.0,
        1.0,
        0.0,
        0.0,
        -1.0,
        0.0,
        0.0,
        0.0,
        0.0,
        0.0,
        1.0
      ],
      "name": "4e8a06e9f33142baa1714221583fd28a.fbx"
    },
    {
      "children": [
        3
      ],
      "name": "Object_2"
    },
    {
      "children": [
        4,
        17
      ],
      "name": "RootNode"
    },
    {
      "children": [
        5
      ],
      "name": "Armature",
      "rotation": [
        -0.7071068286895752,
        0.0,
        0.0,
        0.7071067094802856
      ],
      "scale": [
        100.0,
        100.0,
        100.0
      ]
    },
    {
      "children": [
        6,
        16,
        15
      ],
      "name": "Object_5"
    },
    {
      "children": [
        7
      ],
      "name": "_rootJoint"
    },
    {
      "children": [
        8
      ],
      "name": "ROOT_00",
      "rotation": [
        -5.785154070170739e-31,
        1.3234889800848443e-23,
        1.0,
        -4.371138828673793e-08
      ]
    },
    {
      "children": [
        9,
        12
      ],
      "name": "Body_01",
      "rotation": [
        -0.08119290322065353,
        0.6428124308586121,
        0.7585976123809814,
        0.06877177208662033
      ],
      "scale": [
        0.9999999403953552,
        1.0,
        1.0
      ],
      "translation": [
        0.44251564145088196,
        0.4616873264312744,
        4.206624984741211
      ]
    },
    {
      "children": [
        10
      ],
      "name": "Ear_start.L_02",
      "rotation": [
        -0.05357584357261658,
        -0.03582879155874252,
        -0.202671080827713,
        0.977123498916626
      ],
      "scale": [
        0.9999999403953552,
        0.9999999403953552,
        0.9999999403953552
      ],
      "translation": [
        1.4094340801239014,
        1.9202427864074707,
        -0.22334887087345123
      ]
    },
    {
      "children": [
        11
      ],
      "name": "Ear.L_03",
      "rotation": [
        0.054824065417051315,
        -0.7071529626846313,
        0.04874981939792633,
        0.7032442092895508
      ],
      "translation": [
        -1.601874828338623e-07,
        0.970090389251709,
        1.1734664440155029e-07
      ]
    },
    {
      "name": "Ear.L_end_07",
      "rotation": [
        -5.551115123125783e-17,
        6.938893903907228e-18,
        1.3877787807814457e-17,
        1.0
      ],
      "translation": [
        2.220446049250313e-16,
        1.1589882373809814,
        0.0
      ]
    },
    {
      "children": [
        13
      ],
      "name": "Ear_start.R_04",
      "rotation": [
        -0.06247185543179512,
        0.0015488070202991366,
        0.39737629890441895,
        0.9155256152153015
      ],
      "scale": [
        0.9999999403953552,
        0.9999999403953552,
        1.0
      ],
      "translation": [
        -1.409434199333191,
        1.9289063215255737,
        -0.2967347204685211
      ]
    },
    {
      "children": [
        14
      ],
      "name": "Ear.R_05",
      "rotation": [
        -0.08506951481103897,
        -0.6891465783119202,
        -0.09799283742904663,
        0.7129079103469849
      ],
      "scale": [
        0.9999999403953552,
        1.0000001192092896,
        1.0
      ],
      "translation": [
        -1.8998980522155762e-07,
        0.9700905084609985,
        3.0547380447387695e-07
      ]
    },
    {
      "name": "Ear.R_end_06",
      "rotation": [
        4.5102810375396984e-17,
        -1.3877787807814457e-17,
        4.163336342344337e-17,
        1.0
      ],
      "translation": [
        0.0,
        1.1589882373809814,
        1.1102230246251565e-16
      ]
    },
    {
      "matrix": [
        100.0,
        0.0,
        0.0,
        0.0,
        0.0,
        6.123233995736766e-15,
        -100.0,
        0.0,
        0.0,
        100.0,
        6.123233995736766e-15,
        0.0,
        0.0,
        0.0,
        0.0,
        1.0
      ],
      "name": "Object_15"
    },
    {
      "mesh": 0,
      "name": "Object_16",
      "skin": 0
    },
    {
      "name": "cosmog",
      "rotation": [
        -0.7071068286895752,
        0.0,
        0.0,
        0.7071067094802856
      ],
      "scale": [
        100.0,
        100.0,
        100.0
      ]
    }
  ],
  "samplers": [
    {
      "magFilter": 9729,
      "minFilter": 9987,
      "wrapS": 10497,
      "wrapT": 10497
    }
  ],
  "scene": 0,
  "scenes": [
    {
      "name": "Sketchfab_Scene",
      "nodes": [
        0
      ]
    }
  ],
  "skins": [
    {
      "inverseBindMatrices": 4,
      "joints": [
        6,
        7,
        8,
        9,
        10,
        11,
        12,
        13,
        14
      ],
      "skeleton": 6
    }
  ],
  "textures": [
    {
      "sampler": 0,
      "source": 0
    }
  ]
}
